<svg xmlns="http://www.w3.org/2000/svg" width="128" height="128" viewBox="0 0 33.867 33.867" id="instagram"><path style="line-height:normal;font-variant-ligatures:normal;font-variant-position:normal;font-variant-caps:normal;font-variant-numeric:normal;font-variant-alternates:normal;font-variant-east-asian:normal;font-feature-settings:normal;font-variation-settings:normal;text-indent:0;text-align:start;text-decoration-line:none;text-decoration-style:solid;text-decoration-color:#000;text-transform:none;text-orientation:mixed;white-space:normal;shape-padding:0;shape-margin:0;inline-size:0;isolation:auto;mix-blend-mode:normal;solid-color:#000;solid-opacity:1" fill="#06f" d="m 96.634766,29.595703 c -1.139124,-0.0089 -2.247132,0.371476 -3.140625,1.078125 -2.166034,1.712922 -2.533304,4.857459 -0.820313,7.023438 1.712923,2.166033 4.857459,2.533304 7.023438,0.820312 2.166034,-1.712922 2.533304,-4.857458 0.820314,-7.023437 -0.93979,-1.188414 -2.367759,-1.886596 -3.882814,-1.898438 z M 63.75,33.742188 c -16.929449,0 -30.759766,13.832273 -30.759766,30.761718 0,16.929445 13.830317,30.759766 30.759766,30.759766 16.929445,0 30.759766,-13.830321 30.759766,-30.759766 0,-16.929445 -13.830321,-30.761719 -30.759766,-30.761718 z m 0,9.996093 c 11.525042,0 20.757812,9.24058 20.757812,20.765625 0,11.525046 -9.23277,20.757813 -20.757812,20.757813 -11.525046,0 -20.757812,-9.232767 -20.757812,-20.757813 0,-11.525045 9.232766,-20.765625 20.757812,-20.765625 z" color="#000" enable-background="accumulate" font-family="sans-serif" font-weight="400" overflow="visible" paint-order="fill markers stroke" transform="scale(.26458)"></path><path style="line-height:normal;font-variant-ligatures:normal;font-variant-position:normal;font-variant-caps:normal;font-variant-numeric:normal;font-variant-alternates:normal;font-variant-east-asian:normal;font-feature-settings:normal;font-variation-settings:normal;text-indent:0;text-align:start;text-decoration-line:none;text-decoration-style:solid;text-decoration-color:#000;text-transform:none;text-orientation:mixed;white-space:normal;shape-padding:0;shape-margin:0;inline-size:0;isolation:auto;mix-blend-mode:normal;solid-color:#000;solid-opacity:1" fill="#00a1ff" d="m 30.589844,8.9980469 c -11.875201,0 -21.5917971,9.7165961 -21.5917971,21.5917971 v 66.822265 c 0,11.875201 9.7165961,21.591801 21.5917971,21.591801 h 66.822265 c 11.875201,0 21.591801,-9.7166 21.591801,-21.591801 V 30.589844 c 0,-11.875201 -9.7166,-21.5917971 -21.591801,-21.5917971 z m 0,10.0039061 h 66.822265 c 6.508181,0 11.589841,5.079711 11.589841,11.587891 v 66.822265 c 0,6.508181 -5.08166,11.589841 -11.589841,11.589841 H 30.589844 c -6.50818,0 -11.587891,-5.08166 -11.587891,-11.589841 V 30.589844 c 0,-6.50818 5.079711,-11.587891 11.587891,-11.587891 z" color="#000" enable-background="accumulate" font-family="sans-serif" font-weight="400" overflow="visible" paint-order="fill markers stroke" transform="scale(.26458)"></path></svg>
