<svg xmlns="http://www.w3.org/2000/svg" xmlns:xlink="http://www.w3.org/1999/xlink" width="128" height="128" viewBox="0 0 33.867 33.867" id="linkedin"><defs><linearGradient id="a"><stop offset="0" stop-color="#0cc8ef"></stop><stop offset="1" stop-color="#047afa"></stop></linearGradient><linearGradient id="c" x1="16.292" x2="16.933" y1="7.726" y2="32.808" gradientTransform="translate(-10.58 -.008)" gradientUnits="userSpaceOnUse" xlink:href="#a"></linearGradient><linearGradient id="d" x1="16.512" x2="16.933" y1="7.513" y2="32.808" gradientTransform="translate(-.847 -.008)" gradientUnits="userSpaceOnUse" xlink:href="#a"></linearGradient><linearGradient id="b" x1="17.12" x2="16.933" y1="8.214" y2="32.808" gradientTransform="translate(12.01 -.008)" gradientUnits="userSpaceOnUse" xlink:href="#a"></linearGradient><linearGradient id="e" x1="1.058" x2="7.484" y1="4.271" y2="4.271" gradientTransform="rotate(90 5.09 5.05) scale(1.0364)" gradientUnits="userSpaceOnUse" xlink:href="#a"></linearGradient></defs><path fill="url(#b)" d="M17.765 22.097c1.284-4.794 7.205-4.403 7.205-.236v9.368c0 .88.708 1.588 1.588 1.588h3.344c.88 0 1.587-.708 1.587-1.588V18.39c0-7.585-13.863-8.499-13.795-2.482z" paint-order="fill markers stroke"></path><path fill="url(#c)" d="M3.969 10.38c-.88 0-1.588.707-1.588 1.587v19.262c0 .88.708 1.588 1.588 1.588h3.344c.88 0 1.587-.708 1.587-1.588V11.967c0-.88-.708-1.588-1.587-1.588z" paint-order="fill markers stroke"></path><path d="M2.818 30.94v.263h.53v-.264zm1.322 0v.263h.53v-.264zm1.208 0v.263h.53v-.264zm1.324 0v.263h.53v-.264zm1.322 0v.263h.53v-.264z" style="line-height:normal;font-variant-ligatures:normal;font-variant-position:normal;font-variant-caps:normal;font-variant-numeric:normal;font-variant-alternates:normal;font-variant-east-asian:normal;font-feature-settings:normal;font-variation-settings:normal;text-indent:0;text-align:start;text-decoration-line:none;text-decoration-style:solid;text-decoration-color:#000;text-transform:none;text-orientation:mixed;white-space:normal;shape-padding:0;shape-margin:0;inline-size:0;isolation:auto;mix-blend-mode:normal;solid-color:#000;solid-opacity:1" fill="#024292" color="#000" font-family="sans-serif" font-weight="400" overflow="visible" paint-order="markers fill stroke"></path><path fill="url(#d)" d="M13.701 10.38c-.88 0-1.588.707-1.588 1.587v19.262c0 .88.709 1.588 1.588 1.588h3.344c.88 0 1.587-.708 1.587-1.588V11.967c0-.88-.708-1.588-1.587-1.588z" paint-order="fill markers stroke"></path><path d="M12.55 30.94v.263h.53v-.264zm1.322 0v.263h.53v-.264zm1.208 0v.263h.53v-.264zm1.324 0v.263h.53v-.264zm1.323 0v.263h.529v-.264zm7.68 0v.263h.53v-.264zm1.322 0v.263h.53v-.264zm1.208 0v.263h.53v-.264zm1.324 0v.263h.53v-.264zm1.322 0v.263h.53v-.264z" style="line-height:normal;font-variant-ligatures:normal;font-variant-position:normal;font-variant-caps:normal;font-variant-numeric:normal;font-variant-alternates:normal;font-variant-east-asian:normal;font-feature-settings:normal;font-variation-settings:normal;text-indent:0;text-align:start;text-decoration-line:none;text-decoration-style:solid;text-decoration-color:#000;text-transform:none;text-orientation:mixed;white-space:normal;shape-padding:0;shape-margin:0;inline-size:0;isolation:auto;mix-blend-mode:normal;solid-color:#000;solid-opacity:1" fill="#024292" color="#000" font-family="sans-serif" font-weight="400" overflow="visible" paint-order="markers fill stroke"></path><path fill="url(#e)" d="M5.713 7.717a3.33 3.33 0 0 1-3.33-3.33 3.33 3.33 0 0 1 3.33-3.329 3.33 3.33 0 0 1 3.33 3.33 3.33 3.33 0 0 1-3.33 3.33Z" paint-order="fill markers stroke"></path></svg>