<svg xmlns="http://www.w3.org/2000/svg" width="128" height="128" viewBox="0 0 33.867 33.867" id="reddit"><path fill="#06f" d="M8.825 16.628A3.884 3.884 0 0 1 4.94 20.51a3.884 3.884 0 0 1-3.883-3.883 3.884 3.884 0 0 1 3.883-3.884 3.884 3.884 0 0 1 3.884 3.884zm23.984 0a3.884 3.884 0 0 1-3.883 3.883 3.884 3.884 0 0 1-3.884-3.883 3.884 3.884 0 0 1 3.884-3.884 3.884 3.884 0 0 1 3.883 3.884z" paint-order="fill markers stroke"></path><path fill="#00a1ff" d="M27.973 3.61a3.236 3.236 0 0 0-2.653 1.384l-5.756-1.32a1.15 1.15 0 0 0-.28-.027 1.15 1.15 0 0 0-1.066.78l-2.127 6.248a14.491 9.799 0 0 0-13.649 9.782 14.491 9.799 0 0 0 14.491 9.799 14.491 9.799 0 0 0 14.492-9.799 14.491 9.799 0 0 0-12.918-9.74l1.554-4.566 4.697 1.075a3.236 3.236 0 0 0 3.215 2.857 3.236 3.236 0 0 0 3.236-3.236 3.236 3.236 0 0 0-3.236-3.236Z" paint-order="fill markers stroke"></path><path fill="#fff" d="M11.894 20.692a2.086 2.086 0 0 1-2.086-2.085 2.086 2.086 0 0 1 2.086-2.086 2.086 2.086 0 0 1 2.085 2.086 2.086 2.086 0 0 1-2.085 2.085zm10.077 0a2.086 2.086 0 0 1-2.086-2.085 2.086 2.086 0 0 1 2.086-2.086 2.086 2.086 0 0 1 2.086 2.086 2.086 2.086 0 0 1-2.086 2.085z" opacity=".949" paint-order="fill markers stroke"></path><path style="line-height:normal;font-variant-ligatures:normal;font-variant-position:normal;font-variant-caps:normal;font-variant-numeric:normal;font-variant-alternates:normal;font-variant-east-asian:normal;font-feature-settings:normal;font-variation-settings:normal;text-indent:0;text-align:start;text-decoration-line:none;text-decoration-style:solid;text-decoration-color:#000;text-transform:none;text-orientation:mixed;white-space:normal;shape-padding:0;shape-margin:0;inline-size:0;isolation:auto;mix-blend-mode:normal;solid-color:#000;solid-opacity:1" fill="#fff" d="M12.19 22.843a1.15 1.15 0 0 0-.901.478 1.15 1.15 0 0 0 .259 1.605s4.95 3.409 10.743.064a1.15 1.15 0 0 0 .42-1.571 1.15 1.15 0 0 0-1.57-.42c-4.759 2.746-8.245.063-8.245.063a1.15 1.15 0 0 0-.707-.219z" color="#000" font-family="sans-serif" font-weight="400" overflow="visible" paint-order="fill markers stroke"></path></svg>