<svg xmlns="http://www.w3.org/2000/svg" width="128" height="128" viewBox="0 0 33.867 33.867" id="spotify"><path fill="#00a1ff" d="M16.933 1.058a15.875 15.875 0 0 1 15.875 15.875 15.875 15.875 0 0 1-15.875 15.875A15.875 15.875 0 0 1 1.058 16.933 15.875 15.875 0 0 1 16.933 1.058Z" paint-order="fill markers stroke"></path><path fill="#06f" d="M32.579 19.62a20.113 14.486 0 0 1-15.646 5.383A20.113 14.486 0 0 1 1.287 19.62a15.875 15.875 0 0 0 15.646 13.188A15.875 15.875 0 0 0 32.58 19.619z" paint-order="fill markers stroke"></path><path style="line-height:normal;font-variant-ligatures:normal;font-variant-position:normal;font-variant-caps:normal;font-variant-numeric:normal;font-variant-alternates:normal;font-variant-east-asian:normal;font-feature-settings:normal;font-variation-settings:normal;text-indent:0;text-align:start;text-decoration-line:none;text-decoration-style:solid;text-decoration-color:#000;text-transform:none;text-orientation:mixed;white-space:normal;shape-padding:0;shape-margin:0;inline-size:0;isolation:auto;mix-blend-mode:normal;solid-color:#000;solid-opacity:1" fill="#fff" d="M14.27 9.291c-3.76.15-6.381.98-6.381.98a1.984 1.984 0 0 0-1.32 2.477 1.984 1.984 0 0 0 2.474 1.322s9.097-2.634 16.398 1.723a1.984 1.984 0 0 0 2.721-.688 1.984 1.984 0 0 0-.687-2.72C22.923 9.669 18.028 9.14 14.27 9.29zm.074 6.39c-3.125.126-5.303.817-5.303.817a1.65 1.65 0 0 0-1.098 2.059A1.65 1.65 0 0 0 10 19.654s7.563-2.188 13.633 1.434a1.65 1.65 0 0 0 2.262-.572 1.65 1.65 0 0 0-.57-2.262c-3.784-2.258-7.857-2.698-10.981-2.572z" color="#000" font-family="sans-serif" font-weight="400" overflow="visible" paint-order="fill markers stroke"></path><path style="line-height:normal;font-variant-ligatures:normal;font-variant-position:normal;font-variant-caps:normal;font-variant-numeric:normal;font-variant-alternates:normal;font-variant-east-asian:normal;font-feature-settings:normal;font-variation-settings:normal;text-indent:0;text-align:start;text-decoration-line:none;text-decoration-style:solid;text-decoration-color:#000;text-transform:none;text-orientation:mixed;white-space:normal;shape-padding:0;shape-margin:0;inline-size:0;isolation:auto;mix-blend-mode:normal;solid-color:#000;solid-opacity:1" fill="#a8d0ff" d="M14.643 21.387c-2.151.086-3.65.56-3.65.56a1.136 1.136 0 0 0-.757 1.418 1.136 1.136 0 0 0 1.416.756s5.207-1.507 9.385.986a1.136 1.136 0 0 0 1.557-.392 1.136 1.136 0 0 0-.393-1.559c-2.605-1.554-5.407-1.856-7.558-1.77z" color="#000" font-family="sans-serif" font-weight="400" overflow="visible" paint-order="fill markers stroke"></path></svg>