<svg xmlns="http://www.w3.org/2000/svg" xmlns:xlink="http://www.w3.org/1999/xlink" width="128" height="128" viewBox="0 0 33.867 33.867" id="twitter"><defs><linearGradient id="b"><stop offset="0" stop-color="#01d5f4"></stop><stop offset="1" stop-color="#00b0ef"></stop></linearGradient><linearGradient id="c"><stop offset="0" stop-color="#01d5f4"></stop><stop offset="1" stop-color="#00b1f0"></stop></linearGradient><linearGradient id="a"><stop offset="0" stop-color="#01d5f4"></stop><stop offset="1" stop-color="#009ded"></stop></linearGradient><linearGradient id="d" x1="8.462" x2="25.822" y1="17.858" y2="17.858" gradientUnits="userSpaceOnUse" xlink:href="#a"></linearGradient><linearGradient id="g" x1="23.596" x2="13.783" y1="11.393" y2="25.245" gradientUnits="userSpaceOnUse" xlink:href="#a"></linearGradient><linearGradient id="e" x1="8.462" x2="12.37" y1="17.858" y2="17.231" gradientUnits="userSpaceOnUse" xlink:href="#b"></linearGradient><linearGradient id="f" x1="9.661" x2="15.426" y1="19.496" y2="19.483" gradientUnits="userSpaceOnUse" xlink:href="#c"></linearGradient></defs><g fill="url(#d)" paint-order="fill markers stroke" transform="translate(-14.444 -15.753) scale(1.8304)"><path fill="url(#e)" d="M17.062 15.17s-1.591.946-4.268 1.055c-2.676.109-3.645-.604-3.645-.604s-1.157-.594-.467 1.553c.567 1.761 3.067 2.397 3.067 2.397s3.042 1.017 5.676-.305c2.634-1.322 2.801-2.38 2.867-3.123.067-.743-3.23-.973-3.23-.973z"></path><path fill="url(#f)" d="M17.719 16.6s-1.162 1.343-3.564 2.252c-2.403.909-3.5.553-3.5.553s-1.233-.19.045 1.554c1.048 1.432 3.516 1.254 3.516 1.254s3.076.005 5.073-1.995c1.996-2 1.829-3.013 1.664-3.71-.164-.696-3.234.092-3.234.092z"></path><path fill="url(#g)" d="M20.82 10.253a3.936 3.936 0 0 0-3.845 4.753c-.567-.008-2.082-.118-4.006-1.006-2.432-1.122-2.97-2.198-2.97-2.198s-.759-1.056-1.122 1.17c-.299 1.825 1.637 3.53 1.637 3.53s2.245 2.293 5.191 2.316c1.354.01.698 1.19-.233 1.987-3.719 3.181-4.224 2.652-5.324 2.559-.573-.049-1.049.573.078 1.224 2.463 1.422 8.31 1.48 11.583-2.66 2.771-3.503 3.024-6.663 3.009-7.659.365-.201.692-.454.843-.76.443-.904-.17-.797-.17-.797l-.695.04c.407-.308.787-.687.89-1.094.249-.975-.33-.744-.33-.744l-1.76.48a3.936 3.936 0 0 0-2.771-1.141Z"></path></g><path style="line-height:normal;font-variant-ligatures:normal;font-variant-position:normal;font-variant-caps:normal;font-variant-numeric:normal;font-variant-alternates:normal;font-variant-east-asian:normal;font-feature-settings:normal;font-variation-settings:normal;text-indent:0;text-align:start;text-decoration-line:none;text-decoration-style:solid;text-decoration-color:#000;text-transform:none;text-orientation:mixed;white-space:normal;shape-padding:0;shape-margin:0;inline-size:0;isolation:auto;mix-blend-mode:normal;solid-color:#000;solid-opacity:1" fill="#007cdc" d="m20.33 26.57-.113.069-.201.119-.026.013-.115.065.13.23.116-.064.027-.016.204-.12.113-.067zm-1.146.643-.118.06-.103.053-.131.065-.12.058.116.237.12-.057.132-.067.106-.054.119-.059zm-1.186.564-.121.051-.246.1-.121.05.101.247.121-.051.247-.102.12-.05zm-1.225.475-.125.045-.078.025-.172.057-.125.04.082.253.125-.041.174-.057.08-.027.125-.045zm-10.816.156-.094.246.123.047.08.031.174.059.125.043.086-.25-.125-.043-.17-.059-.076-.029zm9.563.23-.13.036-.128.033-.125.03-.13.03.063.258.13-.03.126-.032.131-.033.129-.035zm-8.317.153-.058.258.128.03.21.048.05.01.13.027.054-.26-.13-.025-.048-.01-.207-.049zm7.035.14-.129.026-.105.018-.154.025-.13.023.044.26.13-.021.157-.026.105-.02.131-.025zm-5.75.114-.035.262.131.02.184.025.08.01.13.017.034-.264-.131-.015-.08-.01-.182-.026zm4.451.082-.13.016-.262.025-.131.012.025.263.131-.013.264-.024.002-.002.133-.013zm-3.146.064-.016.264.133.008.215.014.05.002.134.005.011-.263-.132-.006-.05-.002-.212-.014zm1.84.034-.133.004-.09.002-.172.002-.133.003.004.264.133-.002.174-.002.092-.004.133-.004zM2.87 9.416l-.244.1.207.49.242-.106zm.553 1.186-.233.125.262.464.229-.132zm.678 1.117-.217.152.308.432.213-.155zm.793 1.04-.2.175.354.396.197-.178zm.902.948-.18.193.395.36.174-.201zm.998.848-.16.21.43.315.154-.215zm1.078.738-.135.228.461.266.13-.23zm1.152.623-.113.24.484.221.108-.242zm1.207.504-.086.25.502.172.084-.252zm1.254.379-.062.258.52.117.054-.26zm1.285.25-.035.262.53.064.027-.264zm1.303.12-.008.265.532.011.002-.265z" color="#000" font-family="sans-serif" font-weight="400" overflow="visible" paint-order="fill markers stroke"></path></svg>