<svg xmlns="http://www.w3.org/2000/svg" width="128" height="128" viewBox="0 0 33.867 33.867" id="twitter"><path fill="#a8d0ff" d="m 17.989195,14.631899 c 0,0 -2.126576,2.456771 -6.524148,4.120578 -4.3975715,1.663806 -6.4060779,1.013687 -6.4060779,1.013687 0,0 -2.2558583,-0.349412 0.082826,2.843898 1.9189651,2.620214 6.4349009,2.295113 6.4349009,2.295113 0,0 5.631267,0.009 9.285777,-3.651182 3.654516,-3.660172 3.348083,-5.515218 3.046713,-6.789768 -0.30137,-1.274554 -5.919994,0.167683 -5.919993,0.167683 z" paint-order="fill markers stroke"></path><path fill="#06f" d="m 16.786351,12.012933 c 0,0 -2.912632,1.731492 -7.8116634,1.931163 -4.899032,0.199669 -6.6726857,-1.104442 -6.6726857,-1.104442 0,0 -2.11734942,-1.087923 -0.8536551,2.841452 1.0369002,3.224179 5.6126418,4.388177 5.6126418,4.388177 0,0 5.5695074,1.861541 10.3900284,-0.558117 4.820524,-2.419651 5.127585,-4.356141 5.248679,-5.716533 0.121099,-1.360391 -5.913345,-1.7817 -5.913345,-1.7817 z" paint-order="fill markers stroke"></path><path fill="#00a1ff" d="m 23.666532,3.0129626 c -3.975629,0.00421 -7.196299,3.2282345 -7.196299,7.2038674 2.09e-4,0.50326 0.05316,1.005112 0.157964,1.497338 C 15.589116,11.698975 12.815936,11.497254 9.2956923,9.8725262 4.8438768,7.8178442 3.8587361,5.848728 3.8587361,5.848728 c 0,0 -1.3887711,-1.9330042 -2.0544605,2.1405406 -0.5462265,3.3424734 2.9965666,6.4632374 2.9965666,6.4632374 0,0 4.108824,4.19571 9.5023678,4.238516 2.477672,0.01968 1.277218,2.179718 -0.427539,3.637878 -6.8061399,5.821602 -7.7316932,4.854297 -9.7435713,4.683081 -1.0502591,-0.08938 -1.9200876,1.049781 0.1428262,2.240805 C 8.7822282,31.855078 19.483183,31.960957 25.476013,24.38431 30.54785,17.972064 31.010253,12.187374 30.982964,10.365334 31.651492,9.9959776 32.250191,9.5339478 32.525701,8.9729902 33.33802,7.3190636 32.214503,7.5153796 32.214503,7.5153796 l -1.272215,0.073784 C 31.687329,7.0232378 32.383782,6.3300045 32.572996,5.5857726 33.027022,3.7999399 31.96763,4.2236961 31.96763,4.2236961 L 28.745944,5.1005333 C 27.396719,3.763147 25.573837,3.0128492 23.674099,3.0129626 Z" paint-order="fill markers stroke"></path></svg>