<svg xmlns="http://www.w3.org/2000/svg" xmlns:xlink="http://www.w3.org/1999/xlink" viewBox="0 0 33.867 33.867" id="instagram"><defs><linearGradient id="a"><stop offset="0" stop-color="#fbbc05" class="stopColorfedd1e svgShape"></stop><stop offset=".532" stop-color="#ea4335" class="stopColorf41107 svgShape"></stop><stop offset="1" stop-color="#34a853" class="stopColord400c5 svgShape"></stop></linearGradient><linearGradient id="b" x1="3.704" x2="30.163" y1="30.163" y2="3.704" gradientTransform="scale(3.77953)" gradientUnits="userSpaceOnUse" xlink:href="#a"></linearGradient></defs><path style="line-height:normal;font-variant-ligatures:normal;font-variant-position:normal;font-variant-caps:normal;font-variant-numeric:normal;font-variant-alternates:normal;font-variant-east-asian:normal;font-feature-settings:normal;font-variation-settings:normal;text-indent:0;text-align:start;text-decoration-line:none;text-decoration-style:solid;text-decoration-color:#000;text-transform:none;text-orientation:mixed;white-space:normal;shape-padding:0;shape-margin:0;inline-size:0;isolation:auto;mix-blend-mode:normal;solid-color:#000;solid-opacity:1" fill="url(#b)" d="M30.59 8.998c-11.875 0-21.592 9.717-21.592 21.592v66.822c0 11.875 9.717 21.592 21.592 21.592h66.822c11.875 0 21.592-9.717 21.592-21.592V30.59c0-11.875-9.717-21.592-21.592-21.592H30.59zm0 10.004h66.822c6.508 0 11.59 5.08 11.59 11.588v66.822c0 6.508-5.082 11.59-11.59 11.59H30.59c-6.508 0-11.588-5.082-11.588-11.59V30.59c0-6.508 5.08-11.588 11.588-11.588zm66.045 10.594a5 5 51.673 0 0-3.14 1.078 5 5 51.673 0 0-.821 7.023 5 5 51.673 0 0 7.023.82 5 5 51.673 0 0 .82-7.023 5 5 51.673 0 0-3.882-1.898zM63.75 33.742c-16.93 0-30.76 13.832-30.76 30.762s13.83 30.76 30.76 30.76 30.76-13.83 30.76-30.76-13.83-30.762-30.76-30.762zm0 9.996a20.687 20.687 0 0 1 20.758 20.766A20.68 20.68 0 0 1 63.75 85.262a20.68 20.68 0 0 1-20.758-20.758A20.687 20.687 0 0 1 63.75 43.738z" color="#000" font-family="sans-serif" font-weight="400" overflow="visible" paint-order="fill markers stroke" transform="scale(.26458)"></path><path d="M5.822 26.739v.263h.529v-.263zm1.322 0v.263h.53v-.263zm1.323 0v.263h.529v-.263zm1.324 0v.263h.529v-.263zm1.322 0v.263h.53v-.263zm1.322 0v.263h.53v-.263zm1.324 0v.263h.53v-.263zm1.323 0v.263h.529v-.263zm1.322 0v.263h.53v-.263zm1.324 0v.263h.53v-.263zm1.323 0v.263h.529v-.263zm1.322 0v.263h.53v-.263zm1.324 0v.263h.529v-.263zm1.322 0v.263h.53v-.263zm1.323 0v.263h.529v-.263zm1.324 0v.263h.527v-.263zm1.322 0v.263h.53v-.263z" style="line-height:normal;font-variant-ligatures:normal;font-variant-position:normal;font-variant-caps:normal;font-variant-numeric:normal;font-variant-alternates:normal;font-variant-east-asian:normal;font-feature-settings:normal;font-variation-settings:normal;text-indent:0;text-align:start;text-decoration-line:none;text-decoration-style:solid;text-decoration-color:#000;text-transform:none;text-orientation:mixed;white-space:normal;shape-padding:0;shape-margin:0;inline-size:0;isolation:auto;mix-blend-mode:normal;solid-color:#000;solid-opacity:1" fill="#4285f4" color="#000" font-family="sans-serif" font-weight="400" overflow="visible" paint-order="markers fill stroke" class="colord30f0a svgShape"></path></svg>