<svg id="SvgjsSvg1017" width="288" height="288" xmlns="http://www.w3.org/2000/svg" version="1.1" xmlns:xlink="http://www.w3.org/1999/xlink" xmlns:svgjs="http://svgjs.com/svgjs"><defs id="SvgjsDefs1018"></defs><g id="SvgjsG1019"><svg xmlns="http://www.w3.org/2000/svg" xmlns:xlink="http://www.w3.org/1999/xlink" viewBox="0 0 33.867 33.867" width="288" height="288"><defs><linearGradient id="e" x1="17.708" x2="18.8" y1="31.386" y2="6.102" gradientTransform="translate(-2.32 -3.869) scale(1.08726)" gradientUnits="userSpaceOnUse" xlink:href="#a"></linearGradient><linearGradient id="a"><stop offset="0" stop-color="#fc5185" class="stopColorff5e3f svgShape"></stop><stop offset="1" stop-color="#ff3f79" class="stopColorffb93f svgShape"></stop></linearGradient><linearGradient id="g" x1="-26.318" x2="-22.482" y1="-27.186" y2="-27.186" gradientTransform="rotate(90 -24.4 -27.186)" gradientUnits="userSpaceOnUse" xlink:href="#b"></linearGradient><linearGradient id="f" x1="-35.586" x2="-31.75" y1="-27.186" y2="-27.186" gradientTransform="rotate(90 -33.668 -27.186)" gradientUnits="userSpaceOnUse" xlink:href="#b"></linearGradient><linearGradient id="b"><stop offset="0" stop-color="#f0f0f0" class="stopColoreaf2ff svgShape"></stop><stop offset="1" stop-color="#43dde6" class="stopColor9bbaff svgShape"></stop></linearGradient><linearGradient id="h" x1="16.933" x2="16.933" y1="24.45" y2="28.816" gradientTransform="translate(-2.32 -4.377) scale(1.08726)" gradientUnits="userSpaceOnUse" xlink:href="#b"></linearGradient><linearGradient id="c" x1="5.819" x2="3.704" y1="19.248" y2="16.933" gradientTransform="translate(-2.32 -3.869) scale(1.08726)" gradientUnits="userSpaceOnUse" xlink:href="#a"></linearGradient><linearGradient id="d" x1="30.163" x2="31.485" y1="19.116" y2="16.933" gradientTransform="translate(-2.32 -3.869) scale(1.08726)" gradientUnits="userSpaceOnUse" xlink:href="#a"></linearGradient></defs><path fill="url(#c)" d="M8.825 16.628A3.884 3.884 0 0 1 4.94 20.51a3.884 3.884 0 0 1-3.883-3.883 3.884 3.884 0 0 1 3.883-3.884 3.884 3.884 0 0 1 3.884 3.884Z" paint-order="fill markers stroke"></path><path fill="url(#d)" d="M32.81 16.628a3.884 3.884 0 0 1-3.884 3.883 3.884 3.884 0 0 1-3.884-3.883 3.884 3.884 0 0 1 3.884-3.884 3.884 3.884 0 0 1 3.883 3.884z" paint-order="fill markers stroke"></path><path fill="url(#e)" d="M27.973 3.61a3.236 3.236 0 0 0-2.653 1.384l-5.756-1.32a1.15 1.15 0 0 0-.28-.027 1.15 1.15 0 0 0-1.066.78l-2.127 6.248a14.491 9.799 0 0 0-13.649 9.782 14.491 9.799 0 0 0 14.491 9.799 14.491 9.799 0 0 0 14.492-9.799 14.491 9.799 0 0 0-12.918-9.74l1.554-4.566 4.697 1.075a3.236 3.236 0 0 0 3.215 2.857 3.236 3.236 0 0 0 3.236-3.236 3.236 3.236 0 0 0-3.236-3.236Z" paint-order="fill markers stroke"></path><g fill="#364f6b" paint-order="fill markers stroke" class="colorf0f svgShape"><path fill="url(#f)" d="M-33.668-25.268a1.918 1.918 0 0 1-1.918-1.918 1.918 1.918 0 0 1 1.918-1.918 1.918 1.918 0 0 1 1.918 1.918 1.918 1.918 0 0 1-1.918 1.918z" opacity=".949" transform="translate(48.5 48.165) scale(1.08726)"></path><path fill="url(#g)" d="M-24.4-25.268a1.918 1.918 0 0 1-1.918-1.918 1.918 1.918 0 0 1 1.918-1.918 1.918 1.918 0 0 1 1.918 1.918 1.918 1.918 0 0 1-1.918 1.918z" opacity=".949" transform="translate(48.5 48.165) scale(1.08726)"></path></g><path style="line-height:normal;font-variant-ligatures:normal;font-variant-position:normal;font-variant-caps:normal;font-variant-numeric:normal;font-variant-alternates:normal;font-variant-east-asian:normal;font-feature-settings:normal;font-variation-settings:normal;text-indent:0;text-align:start;text-decoration-line:none;text-decoration-style:solid;text-decoration-color:#000;text-transform:none;text-orientation:mixed;white-space:normal;shape-padding:0;shape-margin:0;inline-size:0;isolation:auto;mix-blend-mode:normal;solid-color:#000;solid-opacity:1" fill="url(#h)" d="M12.19 22.843a1.15 1.15 0 0 0-.901.478 1.15 1.15 0 0 0 .259 1.605s4.95 3.409 10.743.064a1.15 1.15 0 0 0 .42-1.571 1.15 1.15 0 0 0-1.57-.42c-4.759 2.746-8.245.063-8.245.063a1.15 1.15 0 0 0-.707-.219z" color="#000" font-family="sans-serif" font-weight="400" overflow="visible" paint-order="fill markers stroke"></path><path style="line-height:normal;font-variant-ligatures:normal;font-variant-position:normal;font-variant-caps:normal;font-variant-numeric:normal;font-variant-alternates:normal;font-variant-east-asian:normal;font-feature-settings:normal;font-variation-settings:normal;text-indent:0;text-align:start;text-decoration-line:none;text-decoration-style:solid;text-decoration-color:#000;text-transform:none;text-orientation:mixed;white-space:normal;shape-padding:0;shape-margin:0;inline-size:0;isolation:auto;mix-blend-mode:normal;solid-color:#000;solid-opacity:1" fill="#d33464" d="m6.797 25.288-.203.17.357.402.192-.181zm.906.934-.174.199.403.348.17-.204zm1.018.828-.157.213.434.308.15-.219zm1.086.728-.133.229.459.265.13-.23zm1.15.63-.111.237.482.223.108-.24zm1.205.519-.092.248.5.18.088-.25zm1.244.408-.068.256.514.135.064-.258zm1.278.295-.045.262.523.085.041-.261zm1.298.178-.023.263.53.041.019-.263zm13.24-4.52.203.17-.357.402-.192-.181zm-.906.934.173.199-.402.348-.17-.204zm-1.018.828.156.213-.433.308-.15-.219zm-1.086.728.133.229-.46.265-.13-.23zm-1.15.63.111.237-.482.223-.108-.24zm-1.205.519.091.248-.5.18-.088-.25zm-1.245.408.069.256-.514.135-.064-.258zm-1.277.295.045.262-.523.085-.041-.261zm-1.299.178.024.263-.53.041-.02-.263z" color="#000" font-family="sans-serif" font-weight="400" overflow="visible" paint-order="fill markers stroke" transform="translate(-1.076 -1.123)" class="colord33634 svgShape"></path></svg></g></svg>